<svg xmlns="http://www.w3.org/2000/svg" xmlns:xlink="http://www.w3.org/1999/xlink" width="64" zoomAndPan="magnify" viewBox="0 0 48 48" height="64" preserveAspectRatio="xMidYMid meet" version="1.2"><g id="8f58da5394"><path style=" stroke:none;fill-rule:nonzero;fill:#1d1d1f;fill-opacity:1;" d="M 30.152344 5.453125 C 32.351562 6.53125 34.113281 8.128906 35.480469 10.152344 C 35.984375 10.917969 36.359375 11.691406 36.65625 12.558594 L 36.714844 12.738281 C 36.777344 12.917969 36.835938 13.089844 36.898438 13.269531 L 36.953125 13.429688 C 37.574219 15.238281 37.617188 17.421875 37.285156 19.292969 C 37.21875 19.625 37.128906 19.953125 37.039062 20.28125 C 37.015625 20.386719 36.988281 20.492188 36.960938 20.601562 C 36.398438 22.78125 35.171875 24.753906 33.660156 26.398438 C 33.359375 26.734375 33.089844 27.097656 32.8125 27.457031 C 32.722656 27.570312 32.636719 27.679688 32.550781 27.796875 C 31.21875 29.515625 30.460938 31.414062 30.128906 33.558594 C 30.113281 33.757812 30.109375 33.90625 30.164062 34.09375 C 30.292969 34.257812 30.4375 34.386719 30.59375 34.519531 C 30.792969 34.71875 30.878906 34.921875 30.972656 35.183594 C 31.042969 35.488281 31.0625 35.765625 31.019531 36.082031 C 30.972656 36.246094 30.910156 36.40625 30.84375 36.558594 C 30.792969 36.71875 30.792969 36.71875 30.839844 36.902344 C 30.902344 37.316406 30.894531 37.734375 30.894531 38.144531 C 30.894531 38.304688 30.898438 38.464844 30.898438 38.625 C 30.898438 38.726562 30.898438 38.832031 30.898438 38.933594 L 30.902344 39.214844 C 30.863281 39.574219 30.757812 39.835938 30.554688 40.136719 C 30.296875 40.441406 30.0625 40.625 29.6875 40.777344 C 29.371094 40.871094 29.089844 40.90625 28.765625 40.898438 L 28.554688 40.898438 L 28.394531 40.894531 L 28.367188 41.042969 C 28.242188 41.582031 28.03125 41.953125 27.6875 42.382812 L 27.589844 42.519531 C 27.21875 43.003906 26.683594 43.300781 26.128906 43.542969 C 25.441406 43.785156 24.796875 43.847656 24.074219 43.730469 C 23.269531 43.535156 22.652344 43.269531 22.046875 42.699219 C 21.734375 42.375 21.4375 42.035156 21.324219 41.589844 C 21.257812 41.328125 21.214844 41.167969 21.03125 40.96875 C 20.726562 40.863281 20.421875 40.835938 20.105469 40.816406 C 19.765625 40.792969 19.519531 40.769531 19.222656 40.589844 C 18.871094 40.335938 18.640625 40.050781 18.417969 39.683594 C 18.265625 39.285156 18.300781 38.835938 18.335938 38.417969 C 18.386719 38.230469 18.457031 38.09375 18.546875 37.921875 C 18.605469 37.78125 18.605469 37.78125 18.621094 37.636719 C 18.566406 37.503906 18.511719 37.371094 18.464844 37.234375 C 18.359375 36.917969 18.378906 36.59375 18.382812 36.257812 L 18.378906 36.046875 C 18.378906 35.597656 18.433594 35.214844 18.621094 34.800781 C 18.726562 34.621094 18.726562 34.621094 18.832031 34.492188 L 18.9375 34.355469 C 19.046875 34.234375 19.046875 34.234375 19.257812 34.09375 C 19.429688 33.351562 19.125 32.355469 18.921875 31.636719 C 18.335938 29.742188 17.28125 28.070312 15.945312 26.617188 C 15.664062 26.3125 15.410156 25.988281 15.152344 25.664062 L 14.980469 25.457031 C 13.542969 23.644531 12.652344 21.625 12.175781 19.359375 L 12.121094 19.125 C 11.710938 17.050781 11.992188 14.84375 12.625 12.847656 C 13.175781 11.296875 14.019531 9.816406 15.140625 8.609375 C 15.28125 8.464844 15.410156 8.3125 15.535156 8.160156 C 16.953125 6.542969 18.960938 5.476562 20.96875 4.78125 C 23.921875 3.8125 27.363281 4.125 30.152344 5.453125 "/><path style=" stroke:none;fill-rule:nonzero;fill:#ffffff;fill-opacity:1;" d="M 30.152344 5.453125 C 32.351562 6.53125 34.113281 8.128906 35.480469 10.152344 C 35.984375 10.917969 36.359375 11.691406 36.65625 12.558594 L 36.714844 12.738281 C 36.777344 12.917969 36.835938 13.089844 36.898438 13.269531 L 36.953125 13.429688 C 37.574219 15.238281 37.617188 17.421875 37.285156 19.292969 C 37.21875 19.625 37.128906 19.953125 37.039062 20.28125 C 37.015625 20.386719 36.988281 20.492188 36.960938 20.601562 C 36.398438 22.78125 35.171875 24.753906 33.660156 26.398438 C 33.359375 26.734375 33.089844 27.097656 32.8125 27.457031 C 32.722656 27.570312 32.636719 27.679688 32.550781 27.796875 C 31.21875 29.515625 30.460938 31.414062 30.128906 33.558594 C 30.113281 33.757812 30.109375 33.90625 30.164062 34.09375 C 30.292969 34.257812 30.4375 34.386719 30.59375 34.519531 C 30.792969 34.71875 30.878906 34.921875 30.972656 35.183594 C 31.042969 35.488281 31.0625 35.765625 31.019531 36.082031 C 30.972656 36.246094 30.910156 36.40625 30.84375 36.558594 C 30.792969 36.71875 30.792969 36.71875 30.839844 36.902344 C 30.902344 37.316406 30.894531 37.734375 30.894531 38.144531 C 30.894531 38.304688 30.898438 38.464844 30.898438 38.625 C 30.898438 38.726562 30.898438 38.832031 30.898438 38.933594 L 30.902344 39.214844 C 30.863281 39.574219 30.757812 39.835938 30.554688 40.136719 C 30.296875 40.441406 30.0625 40.625 29.6875 40.777344 C 29.371094 40.871094 29.089844 40.90625 28.765625 40.898438 L 28.554688 40.898438 L 28.394531 40.894531 L 28.367188 41.042969 C 28.242188 41.582031 28.03125 41.953125 27.6875 42.382812 L 27.589844 42.519531 C 27.21875 43.003906 26.683594 43.300781 26.128906 43.542969 C 25.441406 43.785156 24.796875 43.847656 24.074219 43.730469 C 23.269531 43.535156 22.652344 43.269531 22.046875 42.699219 C 21.734375 42.375 21.4375 42.035156 21.324219 41.589844 C 21.257812 41.328125 21.214844 41.167969 21.03125 40.96875 C 20.726562 40.863281 20.421875 40.835938 20.105469 40.816406 C 19.765625 40.792969 19.519531 40.769531 19.222656 40.589844 C 18.871094 40.335938 18.640625 40.050781 18.417969 39.683594 C 18.265625 39.285156 18.300781 38.835938 18.335938 38.417969 C 18.386719 38.230469 18.457031 38.09375 18.546875 37.921875 C 18.605469 37.78125 18.605469 37.78125 18.621094 37.636719 C 18.566406 37.503906 18.511719 37.371094 18.464844 37.234375 C 18.359375 36.917969 18.378906 36.59375 18.382812 36.257812 L 18.378906 36.046875 C 18.378906 35.597656 18.433594 35.214844 18.621094 34.800781 C 18.726562 34.621094 18.726562 34.621094 18.832031 34.492188 L 18.9375 34.355469 C 19.046875 34.234375 19.046875 34.234375 19.257812 34.09375 C 19.429688 33.351562 19.125 32.355469 18.921875 31.636719 C 18.335938 29.742188 17.28125 28.070312 15.945312 26.617188 C 15.664062 26.3125 15.410156 25.988281 15.152344 25.664062 L 14.980469 25.457031 C 13.542969 23.644531 12.652344 21.625 12.175781 19.359375 L 12.121094 19.125 C 11.710938 17.050781 11.992188 14.84375 12.625 12.847656 C 13.175781 11.296875 14.019531 9.816406 15.140625 8.609375 C 15.28125 8.464844 15.410156 8.3125 15.535156 8.160156 C 16.953125 6.542969 18.960938 5.476562 20.96875 4.78125 C 23.921875 3.8125 27.363281 4.125 30.152344 5.453125 M 18.910156 7.351562 C 18.230469 7.808594 17.585938 8.308594 16.992188 8.875 L 16.882812 8.976562 C 15.5625 10.21875 14.574219 11.753906 14.015625 13.480469 C 13.742188 14.410156 13.511719 15.332031 13.503906 16.304688 L 13.503906 16.460938 C 13.503906 16.570312 13.503906 16.679688 13.503906 16.78125 C 13.503906 16.953125 13.5 17.109375 13.5 17.273438 C 13.496094 17.992188 13.578125 18.65625 13.734375 19.359375 C 13.761719 19.523438 13.789062 19.683594 13.820312 19.84375 C 14.234375 21.722656 15.238281 23.53125 16.519531 24.957031 C 16.679688 25.132812 16.824219 25.324219 16.964844 25.515625 L 17.136719 25.734375 L 17.277344 25.734375 L 17.324219 25.851562 C 17.445312 26.070312 17.601562 26.238281 17.765625 26.421875 C 18.234375 26.957031 18.609375 27.542969 18.976562 28.148438 L 19.054688 28.273438 C 20.015625 29.84375 20.707031 31.691406 20.804688 33.539062 L 20.820312 33.671875 L 20.890625 33.738281 C 20.988281 33.746094 21.089844 33.75 21.191406 33.75 L 21.835938 33.75 C 22.082031 33.75 22.335938 33.75 22.585938 33.75 L 23.105469 33.75 C 23.558594 33.746094 24.015625 33.746094 24.46875 33.746094 C 24.9375 33.746094 25.402344 33.746094 25.867188 33.746094 C 26.78125 33.746094 27.691406 33.738281 28.609375 33.738281 L 28.625 33.613281 C 28.65625 33.421875 28.683594 33.226562 28.707031 33.03125 L 28.734375 32.835938 C 29.027344 30.773438 29.882812 28.757812 31.152344 27.105469 C 31.578125 26.5625 32.027344 26.035156 32.484375 25.519531 C 33.28125 24.601562 33.992188 23.625 34.5625 22.550781 L 34.6875 22.320312 C 35.550781 20.691406 35.917969 18.875 35.917969 17.046875 L 35.917969 16.773438 C 35.921875 14.976562 35.46875 13.164062 34.59375 11.59375 C 33.835938 10.285156 32.867188 9.078125 31.652344 8.164062 L 31.542969 8.082031 C 29.914062 6.84375 28.113281 6.128906 26.097656 5.808594 C 23.59375 5.527344 21.0625 6.027344 18.910156 7.351562 "/><path style=" stroke:none;fill-rule:nonzero;fill:#ffd21f;fill-opacity:1;" d="M 28.800781 14.871094 C 28.898438 14.871094 28.996094 14.867188 29.101562 14.867188 C 29.242188 14.863281 29.386719 14.863281 29.53125 14.859375 L 29.796875 14.855469 C 30.023438 14.902344 30.023438 14.902344 30.21875 15.027344 C 30.382812 15.253906 30.382812 15.253906 30.414062 15.421875 C 30.429688 15.636719 30.429688 15.855469 30.421875 16.070312 L 30.429688 16.324219 C 30.429688 16.59375 30.421875 16.871094 30.421875 17.148438 C 30.421875 17.339844 30.421875 17.53125 30.421875 17.71875 C 30.421875 18.121094 30.421875 18.519531 30.417969 18.921875 C 30.417969 19.382812 30.414062 19.84375 30.417969 20.304688 C 30.417969 20.753906 30.417969 21.199219 30.414062 21.644531 C 30.414062 21.832031 30.414062 22.023438 30.414062 22.210938 C 30.414062 22.472656 30.414062 22.738281 30.410156 23 L 30.410156 23.238281 C 30.410156 23.539062 30.40625 23.765625 30.285156 24.046875 C 30.164062 24.175781 30.164062 24.175781 29.953125 24.246094 C 29.625 24.265625 29.300781 24.265625 28.96875 24.265625 C 28.835938 24.269531 28.835938 24.269531 28.695312 24.269531 L 28.429688 24.269531 L 28.191406 24.277344 C 27.972656 24.246094 27.972656 24.246094 27.777344 24.167969 C 27.617188 24.035156 27.617188 24.035156 27.539062 23.867188 C 27.453125 23.511719 27.457031 23.167969 27.457031 22.808594 L 27.457031 22.5625 C 27.453125 22.296875 27.453125 22.035156 27.453125 21.769531 L 27.453125 21.214844 C 27.453125 20.828125 27.453125 20.441406 27.453125 20.058594 C 27.453125 19.609375 27.449219 19.167969 27.449219 18.714844 C 27.445312 18.285156 27.445312 17.863281 27.445312 17.429688 C 27.445312 17.246094 27.445312 17.0625 27.445312 16.882812 C 27.445312 16.625 27.445312 16.375 27.445312 16.117188 L 27.4375 15.886719 C 27.445312 15.695312 27.449219 15.511719 27.472656 15.320312 C 27.613281 15.097656 27.613281 15.097656 27.757812 14.96875 C 28.0625 14.816406 28.460938 14.878906 28.800781 14.871094 M 30.304688 9.445312 C 30.421875 9.59375 30.421875 9.59375 30.523438 9.796875 C 30.550781 10.039062 30.550781 10.039062 30.550781 10.316406 L 30.550781 10.460938 C 30.550781 10.570312 30.550781 10.671875 30.550781 10.777344 C 30.550781 10.9375 30.550781 11.089844 30.550781 11.25 C 30.550781 11.351562 30.550781 11.453125 30.550781 11.550781 L 30.550781 11.828125 C 30.523438 12.0625 30.523438 12.0625 30.429688 12.230469 C 30.304688 12.34375 30.304688 12.34375 30.070312 12.414062 C 29.8125 12.417969 29.8125 12.417969 29.613281 12.355469 L 29.460938 12.203125 C 29.410156 11.992188 29.390625 11.785156 29.386719 11.566406 C 29.15625 11.75 28.949219 11.925781 28.761719 12.15625 C 28.332031 12.65625 27.847656 13.109375 27.382812 13.574219 C 26.753906 14.1875 26.753906 14.1875 26.164062 14.84375 C 25.980469 15.054688 25.785156 15.257812 25.589844 15.453125 L 25.472656 15.578125 C 25.257812 15.792969 25.085938 15.949219 24.785156 16.03125 C 24.515625 16.050781 24.339844 16.050781 24.089844 15.941406 C 23.839844 15.804688 23.621094 15.640625 23.394531 15.464844 L 23.15625 15.28125 L 22.945312 15.109375 C 22.847656 15.039062 22.757812 14.96875 22.660156 14.902344 C 22.40625 15.003906 22.25 15.148438 22.058594 15.347656 L 21.871094 15.539062 L 21.769531 15.640625 C 21.667969 15.75 21.566406 15.855469 21.460938 15.960938 C 21.167969 16.261719 20.871094 16.566406 20.574219 16.867188 C 20.398438 17.050781 20.214844 17.238281 20.035156 17.421875 C 19.96875 17.492188 19.898438 17.5625 19.828125 17.632812 C 19.304688 18.1875 19.304688 18.1875 19.027344 18.285156 C 18.800781 18.316406 18.628906 18.296875 18.410156 18.238281 C 18.265625 18.085938 18.265625 18.085938 18.214844 17.945312 C 18.171875 17.761719 18.171875 17.632812 18.195312 17.449219 C 18.28125 17.3125 18.28125 17.3125 18.402344 17.183594 L 18.539062 17.035156 C 18.867188 16.699219 19.203125 16.363281 19.542969 16.03125 C 19.839844 15.738281 20.128906 15.4375 20.402344 15.113281 C 20.671875 14.8125 20.964844 14.527344 21.253906 14.230469 L 21.628906 13.855469 L 21.792969 13.6875 C 21.941406 13.558594 22.054688 13.480469 22.230469 13.410156 C 22.453125 13.378906 22.59375 13.371094 22.800781 13.410156 C 23.023438 13.523438 23.214844 13.664062 23.414062 13.816406 L 23.574219 13.933594 C 23.789062 14.09375 24 14.253906 24.203125 14.433594 L 24.355469 14.539062 C 24.496094 14.53125 24.496094 14.53125 24.644531 14.472656 C 24.761719 14.378906 24.761719 14.378906 24.863281 14.269531 L 24.988281 14.140625 L 25.121094 14 C 25.210938 13.910156 25.300781 13.816406 25.390625 13.726562 L 25.519531 13.59375 C 25.648438 13.464844 25.785156 13.347656 25.929688 13.226562 C 26.214844 12.980469 26.46875 12.699219 26.722656 12.421875 C 26.960938 12.15625 27.210938 11.902344 27.460938 11.652344 C 27.761719 11.351562 28.050781 11.039062 28.328125 10.714844 L 28.195312 10.691406 L 28.015625 10.65625 L 27.84375 10.617188 C 27.6875 10.574219 27.6875 10.574219 27.546875 10.433594 C 27.5 10.226562 27.472656 10.070312 27.472656 9.867188 C 27.550781 9.660156 27.550781 9.660156 27.6875 9.511719 C 28.101562 9.316406 28.550781 9.332031 28.996094 9.316406 L 29.238281 9.304688 C 30.011719 9.28125 30.011719 9.28125 30.304688 9.445312 M 23.820312 17.402344 L 24.25 17.402344 C 24.351562 17.402344 24.460938 17.402344 24.558594 17.402344 C 24.71875 17.40625 24.875 17.40625 25.03125 17.402344 C 25.136719 17.40625 25.234375 17.40625 25.335938 17.40625 L 25.609375 17.40625 C 25.84375 17.449219 25.84375 17.449219 26 17.550781 C 26.128906 17.730469 26.128906 17.730469 26.164062 17.992188 C 26.164062 18.101562 26.164062 18.210938 26.164062 18.316406 L 26.164062 18.496094 C 26.164062 18.6875 26.164062 18.886719 26.164062 19.078125 C 26.164062 19.21875 26.164062 19.347656 26.164062 19.484375 C 26.164062 19.769531 26.164062 20.054688 26.160156 20.339844 C 26.160156 20.699219 26.160156 21.0625 26.160156 21.429688 C 26.160156 21.703125 26.160156 21.984375 26.160156 22.261719 C 26.160156 22.398438 26.160156 22.53125 26.160156 22.667969 C 26.160156 22.855469 26.160156 23.042969 26.160156 23.226562 L 26.160156 23.394531 C 26.15625 23.636719 26.132812 23.8125 26.027344 24.035156 C 25.917969 24.175781 25.917969 24.175781 25.789062 24.234375 C 25.417969 24.269531 25.050781 24.265625 24.679688 24.265625 C 24.550781 24.269531 24.550781 24.269531 24.417969 24.269531 L 24.164062 24.269531 L 23.929688 24.277344 C 23.691406 24.246094 23.558594 24.183594 23.367188 24.035156 C 23.226562 23.820312 23.226562 23.820312 23.207031 23.566406 C 23.203125 23.464844 23.203125 23.355469 23.203125 23.253906 L 23.203125 23.074219 C 23.199219 22.882812 23.199219 22.691406 23.199219 22.496094 L 23.199219 22.09375 C 23.191406 21.816406 23.191406 21.535156 23.191406 21.253906 C 23.191406 20.898438 23.1875 20.53125 23.1875 20.175781 C 23.183594 19.898438 23.183594 19.621094 23.183594 19.34375 C 23.183594 19.214844 23.183594 19.078125 23.183594 18.945312 C 23.179688 18.761719 23.179688 18.574219 23.179688 18.390625 L 23.179688 18.226562 C 23.179688 18.074219 23.179688 18.074219 23.226562 17.800781 C 23.417969 17.546875 23.511719 17.457031 23.820312 17.402344 M 19.5 19.527344 C 19.59375 19.527344 19.691406 19.527344 19.785156 19.527344 L 19.941406 19.527344 C 20.050781 19.527344 20.15625 19.527344 20.265625 19.53125 C 20.425781 19.53125 20.589844 19.53125 20.753906 19.53125 C 20.859375 19.53125 20.960938 19.53125 21.066406 19.53125 L 21.21875 19.53125 C 21.355469 19.535156 21.355469 19.535156 21.597656 19.574219 C 21.753906 19.691406 21.753906 19.691406 21.878906 19.855469 C 21.914062 20.039062 21.914062 20.039062 21.914062 20.253906 L 21.917969 20.5 L 21.914062 20.757812 L 21.914062 21.023438 C 21.914062 21.210938 21.914062 21.398438 21.914062 21.585938 C 21.914062 21.828125 21.90625 22.066406 21.914062 22.304688 C 21.914062 22.535156 21.914062 22.765625 21.90625 22.992188 L 21.914062 23.253906 L 21.90625 23.496094 L 21.90625 23.707031 C 21.878906 23.894531 21.878906 23.894531 21.78125 24.058594 C 21.664062 24.175781 21.664062 24.175781 21.535156 24.230469 C 21.171875 24.277344 20.800781 24.261719 20.429688 24.261719 L 20.167969 24.265625 L 19.683594 24.265625 C 19.457031 24.246094 19.3125 24.21875 19.117188 24.101562 C 18.992188 23.855469 18.957031 23.648438 18.957031 23.367188 L 18.953125 23.140625 L 18.953125 22.640625 C 18.953125 22.460938 18.945312 22.285156 18.945312 22.109375 C 18.945312 21.839844 18.945312 21.570312 18.941406 21.296875 C 18.941406 21.128906 18.941406 20.953125 18.941406 20.785156 L 18.9375 20.535156 C 18.941406 20.222656 18.945312 19.988281 19.082031 19.695312 C 19.257812 19.574219 19.257812 19.574219 19.5 19.527344 "/><path style=" stroke:none;fill-rule:nonzero;fill:#0052cc;fill-opacity:1;" d="M 21.222656 7.878906 C 21.457031 7.957031 21.457031 7.957031 21.664062 8.140625 C 21.808594 8.378906 21.808594 8.378906 21.8125 8.636719 C 21.738281 8.875 21.738281 8.875 21.617188 9.023438 C 21.4375 9.171875 21.289062 9.238281 21.078125 9.3125 C 20.195312 9.660156 19.351562 10.25 18.6875 10.929688 L 18.546875 11.074219 L 18.40625 11.074219 L 18.359375 11.183594 C 18.261719 11.363281 18.136719 11.523438 18.003906 11.683594 C 17.015625 12.886719 16.519531 14.183594 16.179688 15.683594 C 16.078125 16.082031 16.078125 16.082031 15.960938 16.25 C 15.722656 16.335938 15.539062 16.324219 15.292969 16.28125 C 15.152344 16.242188 15.152344 16.242188 15.011719 16.117188 C 14.90625 15.902344 14.859375 15.699219 14.878906 15.460938 C 15.230469 13.804688 15.839844 12.246094 16.917969 10.929688 L 17.023438 10.804688 C 17.425781 10.3125 17.828125 9.839844 18.335938 9.445312 L 18.519531 9.292969 C 18.933594 8.976562 19.359375 8.691406 19.804688 8.421875 L 19.960938 8.335938 C 20.355469 8.101562 20.75 7.886719 21.222656 7.878906 "/><path style=" stroke:none;fill-rule:nonzero;fill:#1d1d1f;fill-opacity:1;" d="M 20.667969 35.21875 L 21.394531 35.21875 C 21.636719 35.21875 21.867188 35.21875 22.101562 35.21875 C 22.296875 35.214844 22.488281 35.214844 22.6875 35.214844 C 23.152344 35.214844 23.605469 35.214844 24.070312 35.214844 C 24.542969 35.214844 25.023438 35.214844 25.496094 35.214844 C 25.90625 35.214844 26.3125 35.214844 26.71875 35.214844 C 26.964844 35.214844 27.210938 35.214844 27.453125 35.207031 C 27.726562 35.207031 27.996094 35.207031 28.269531 35.207031 C 28.390625 35.207031 28.390625 35.207031 28.515625 35.207031 L 28.9375 35.207031 C 29.125 35.226562 29.230469 35.269531 29.386719 35.367188 L 29.53125 35.578125 C 29.503906 35.773438 29.503906 35.773438 29.460938 35.9375 L 29.328125 35.949219 C 28.246094 36.085938 27.171875 36.226562 26.097656 36.378906 L 25.867188 36.40625 C 24.925781 36.535156 23.980469 36.667969 23.039062 36.804688 L 22.761719 36.84375 C 22.316406 36.90625 21.871094 36.972656 21.425781 37.035156 L 20.71875 37.136719 L 20.511719 37.167969 L 20.332031 37.191406 C 20.175781 37.210938 20.175781 37.210938 19.96875 37.210938 C 19.902344 36.695312 19.839844 36.171875 19.894531 35.65625 C 20.027344 35.429688 20.027344 35.429688 20.175781 35.300781 C 20.355469 35.207031 20.472656 35.21875 20.667969 35.21875 M 29.386719 37.492188 C 29.40625 37.722656 29.425781 37.953125 29.4375 38.175781 L 29.453125 38.371094 C 29.472656 38.671875 29.472656 38.882812 29.367188 39.164062 L 29.246094 39.339844 C 29.03125 39.40625 28.894531 39.417969 28.667969 39.417969 L 28.4375 39.417969 L 28.191406 39.414062 L 27.921875 39.414062 C 27.683594 39.414062 27.445312 39.414062 27.203125 39.414062 L 26.753906 39.40625 C 26.285156 39.40625 25.816406 39.402344 25.347656 39.398438 C 24.808594 39.398438 24.265625 39.394531 23.722656 39.394531 C 23.304688 39.390625 22.886719 39.390625 22.46875 39.382812 C 22.21875 39.382812 21.96875 39.382812 21.71875 39.382812 C 21.441406 39.382812 21.160156 39.378906 20.882812 39.375 L 20.632812 39.378906 L 20.402344 39.375 L 20.203125 39.375 L 20.035156 39.339844 C 19.910156 39.207031 19.910156 39.207031 19.824219 39.054688 C 19.847656 38.859375 19.847656 38.859375 19.894531 38.699219 C 20.976562 38.53125 22.058594 38.378906 23.144531 38.234375 C 23.921875 38.132812 24.695312 38.023438 25.46875 37.914062 L 25.746094 37.878906 C 26.195312 37.8125 26.652344 37.75 27.101562 37.6875 L 27.609375 37.613281 L 27.84375 37.582031 C 28.179688 37.53125 28.519531 37.484375 28.859375 37.445312 L 29.03125 37.429688 C 29.175781 37.421875 29.175781 37.421875 29.386719 37.492188 "/><path style=" stroke:none;fill-rule:nonzero;fill:#1d1d1f;fill-opacity:1;" d="M 22.660156 40.824219 C 23.046875 40.820312 23.4375 40.820312 23.828125 40.820312 C 23.957031 40.820312 24.089844 40.820312 24.21875 40.820312 C 25.121094 40.816406 26.011719 40.839844 26.910156 40.894531 C 26.746094 41.332031 26.488281 41.59375 26.128906 41.890625 C 25.707031 42.132812 25.296875 42.25 24.8125 42.261719 C 24.394531 42.257812 24.03125 42.203125 23.652344 42.03125 C 23.226562 41.769531 22.917969 41.464844 22.660156 41.035156 Z M 22.660156 40.824219 "/></g></svg>