<svg xmlns="http://www.w3.org/2000/svg" xmlns:xlink="http://www.w3.org/1999/xlink" width="64" zoomAndPan="magnify" viewBox="0 0 48 48" height="64" preserveAspectRatio="xMidYMid meet" version="1.2"><defs><clipPath id="d89b9d8659"><path d="M 1.648438 21 L 46.464844 21 L 46.464844 44 L 1.648438 44 Z M 1.648438 21 "/></clipPath><clipPath id="3f953c6743"><path d="M 1.648438 3.117188 L 43 3.117188 L 43 25 L 1.648438 25 Z M 1.648438 3.117188 "/></clipPath></defs><g id="5448578eb7"><g clip-rule="nonzero" clip-path="url(#d89b9d8659)"><path style=" stroke:none;fill-rule:nonzero;fill:#00357a;fill-opacity:1;" d="M 42.429688 22.914062 C 42.4375 23.113281 42.4375 23.3125 42.4375 23.507812 C 42.4375 29.121094 40.144531 34.222656 36.453125 37.914062 C 32.757812 41.609375 27.65625 43.902344 22.046875 43.902344 L 1.652344 43.902344 L 1.652344 33.722656 C 12.371094 23.921875 29.265625 19.582031 46.339844 22.867188 C 45.027344 22.839844 43.722656 22.855469 42.429688 22.914062 Z M 11.097656 35.320312 L 22.046875 35.320312 C 25.289062 35.320312 28.242188 33.992188 30.382812 31.847656 C 32.425781 29.804688 33.730469 27.027344 33.847656 23.960938 C 24.980469 25.753906 17.035156 29.667969 11.097656 35.320312 Z M 11.097656 35.320312 "/></g><g clip-rule="nonzero" clip-path="url(#3f953c6743)"><path style=" stroke:none;fill-rule:nonzero;fill:#ffd21f;fill-opacity:1;" d="M 5.941406 3.117188 L 22.046875 3.117188 C 27.65625 3.117188 32.757812 5.410156 36.453125 9.101562 C 39.488281 12.140625 41.578125 16.125 42.226562 20.5625 C 39.25 19.929688 36.164062 19.472656 33.039062 19.210938 C 32.4375 17.6875 31.527344 16.3125 30.382812 15.171875 C 28.242188 13.027344 25.289062 11.699219 22.046875 11.699219 L 10.234375 11.699219 L 10.234375 18.597656 C 15.25 18.171875 20.523438 18.28125 25.863281 19.042969 C 17.039062 19.320312 8.613281 21.128906 1.652344 24.4375 L 1.652344 3.117188 Z M 5.941406 3.117188 "/></g><g style="fill:#ffffff;fill-opacity:1;"><g transform="translate(21.877393, 46.48546)"><path style="stroke:none" d="M 0.546875 0.015625 C 0.460938 0.015625 0.382812 0 0.3125 -0.03125 C 0.25 -0.0703125 0.195312 -0.132812 0.15625 -0.21875 C 0.125 -0.300781 0.109375 -0.40625 0.109375 -0.53125 C 0.109375 -0.644531 0.128906 -0.742188 0.171875 -0.828125 C 0.210938 -0.910156 0.265625 -0.972656 0.328125 -1.015625 C 0.398438 -1.054688 0.476562 -1.078125 0.5625 -1.078125 C 0.632812 -1.078125 0.695312 -1.0625 0.75 -1.03125 C 0.8125 -1.007812 0.859375 -0.96875 0.890625 -0.90625 L 0.921875 -0.90625 L 0.921875 -1.46875 L 1.078125 -1.46875 L 1.078125 0 L 0.921875 0 L 0.921875 -0.15625 L 0.890625 -0.15625 C 0.859375 -0.101562 0.8125 -0.0625 0.75 -0.03125 C 0.695312 0 0.628906 0.015625 0.546875 0.015625 Z M 0.59375 -0.125 C 0.6875 -0.125 0.765625 -0.15625 0.828125 -0.21875 C 0.890625 -0.289062 0.921875 -0.394531 0.921875 -0.53125 C 0.921875 -0.664062 0.890625 -0.765625 0.828125 -0.828125 C 0.765625 -0.898438 0.6875 -0.9375 0.59375 -0.9375 C 0.488281 -0.9375 0.410156 -0.898438 0.359375 -0.828125 C 0.304688 -0.765625 0.28125 -0.664062 0.28125 -0.53125 C 0.28125 -0.257812 0.382812 -0.125 0.59375 -0.125 Z M 0.59375 -0.125 "/></g></g><g style="fill:#ffffff;fill-opacity:1;"><g transform="translate(23.132357, 46.48546)"><path style="stroke:none" d="M 0.4375 0.015625 C 0.332031 0.015625 0.25 -0.0078125 0.1875 -0.0625 C 0.132812 -0.113281 0.109375 -0.191406 0.109375 -0.296875 C 0.109375 -0.359375 0.117188 -0.410156 0.140625 -0.453125 C 0.171875 -0.492188 0.210938 -0.523438 0.265625 -0.546875 C 0.316406 -0.578125 0.382812 -0.601562 0.46875 -0.625 C 0.550781 -0.632812 0.609375 -0.644531 0.640625 -0.65625 C 0.679688 -0.675781 0.707031 -0.695312 0.71875 -0.71875 C 0.738281 -0.738281 0.75 -0.757812 0.75 -0.78125 C 0.75 -0.832031 0.734375 -0.867188 0.703125 -0.890625 C 0.671875 -0.921875 0.617188 -0.9375 0.546875 -0.9375 C 0.472656 -0.9375 0.410156 -0.921875 0.359375 -0.890625 C 0.316406 -0.867188 0.273438 -0.832031 0.234375 -0.78125 L 0.21875 -0.78125 L 0.140625 -0.890625 C 0.179688 -0.941406 0.234375 -0.984375 0.296875 -1.015625 C 0.367188 -1.054688 0.453125 -1.078125 0.546875 -1.078125 C 0.671875 -1.078125 0.757812 -1.046875 0.8125 -0.984375 C 0.875 -0.929688 0.90625 -0.859375 0.90625 -0.765625 L 0.90625 -0.203125 C 0.90625 -0.148438 0.929688 -0.125 0.984375 -0.125 C 0.992188 -0.125 1.007812 -0.125 1.03125 -0.125 L 1.046875 -0.125 L 1.0625 -0.015625 C 1.050781 -0.00390625 1.035156 0 1.015625 0 C 0.992188 0 0.972656 0 0.953125 0 C 0.898438 0 0.859375 -0.0078125 0.828125 -0.03125 C 0.796875 -0.0507812 0.773438 -0.0859375 0.765625 -0.140625 L 0.75 -0.140625 C 0.71875 -0.0859375 0.675781 -0.046875 0.625 -0.015625 C 0.570312 0.00390625 0.507812 0.015625 0.4375 0.015625 Z M 0.46875 -0.109375 C 0.53125 -0.109375 0.582031 -0.117188 0.625 -0.140625 C 0.664062 -0.171875 0.695312 -0.207031 0.71875 -0.25 C 0.738281 -0.300781 0.75 -0.359375 0.75 -0.421875 L 0.75 -0.5625 L 0.734375 -0.5625 C 0.710938 -0.550781 0.679688 -0.535156 0.640625 -0.515625 C 0.609375 -0.503906 0.566406 -0.5 0.515625 -0.5 C 0.453125 -0.488281 0.398438 -0.472656 0.359375 -0.453125 C 0.328125 -0.441406 0.300781 -0.421875 0.28125 -0.390625 C 0.269531 -0.359375 0.265625 -0.328125 0.265625 -0.296875 C 0.265625 -0.234375 0.28125 -0.1875 0.3125 -0.15625 C 0.351562 -0.125 0.40625 -0.109375 0.46875 -0.109375 Z M 0.46875 -0.109375 "/></g></g><g style="fill:#ffffff;fill-opacity:1;"><g transform="translate(24.207201, 46.48546)"><path style="stroke:none" d="M 0.71875 -0.171875 L 0.765625 -0.0625 C 0.734375 -0.03125 0.695312 -0.0078125 0.65625 0 C 0.625 0.0078125 0.582031 0.015625 0.53125 0.015625 C 0.332031 0.015625 0.234375 -0.0820312 0.234375 -0.28125 L 0.234375 -0.921875 L 0.046875 -0.921875 L 0.046875 -1.046875 L 0.234375 -1.046875 L 0.234375 -1.28125 L 0.390625 -1.296875 L 0.390625 -1.046875 L 0.71875 -1.046875 L 0.71875 -0.921875 L 0.390625 -0.921875 L 0.390625 -0.296875 C 0.390625 -0.179688 0.441406 -0.125 0.546875 -0.125 C 0.597656 -0.125 0.644531 -0.140625 0.6875 -0.171875 Z M 0.71875 -0.171875 "/></g></g><g style="fill:#ffffff;fill-opacity:1;"><g transform="translate(25.007633, 46.48546)"><path style="stroke:none" d="M 0.4375 0.015625 C 0.332031 0.015625 0.25 -0.0078125 0.1875 -0.0625 C 0.132812 -0.113281 0.109375 -0.191406 0.109375 -0.296875 C 0.109375 -0.359375 0.117188 -0.410156 0.140625 -0.453125 C 0.171875 -0.492188 0.210938 -0.523438 0.265625 -0.546875 C 0.316406 -0.578125 0.382812 -0.601562 0.46875 -0.625 C 0.550781 -0.632812 0.609375 -0.644531 0.640625 -0.65625 C 0.679688 -0.675781 0.707031 -0.695312 0.71875 -0.71875 C 0.738281 -0.738281 0.75 -0.757812 0.75 -0.78125 C 0.75 -0.832031 0.734375 -0.867188 0.703125 -0.890625 C 0.671875 -0.921875 0.617188 -0.9375 0.546875 -0.9375 C 0.472656 -0.9375 0.410156 -0.921875 0.359375 -0.890625 C 0.316406 -0.867188 0.273438 -0.832031 0.234375 -0.78125 L 0.21875 -0.78125 L 0.140625 -0.890625 C 0.179688 -0.941406 0.234375 -0.984375 0.296875 -1.015625 C 0.367188 -1.054688 0.453125 -1.078125 0.546875 -1.078125 C 0.671875 -1.078125 0.757812 -1.046875 0.8125 -0.984375 C 0.875 -0.929688 0.90625 -0.859375 0.90625 -0.765625 L 0.90625 -0.203125 C 0.90625 -0.148438 0.929688 -0.125 0.984375 -0.125 C 0.992188 -0.125 1.007812 -0.125 1.03125 -0.125 L 1.046875 -0.125 L 1.0625 -0.015625 C 1.050781 -0.00390625 1.035156 0 1.015625 0 C 0.992188 0 0.972656 0 0.953125 0 C 0.898438 0 0.859375 -0.0078125 0.828125 -0.03125 C 0.796875 -0.0507812 0.773438 -0.0859375 0.765625 -0.140625 L 0.75 -0.140625 C 0.71875 -0.0859375 0.675781 -0.046875 0.625 -0.015625 C 0.570312 0.00390625 0.507812 0.015625 0.4375 0.015625 Z M 0.46875 -0.109375 C 0.53125 -0.109375 0.582031 -0.117188 0.625 -0.140625 C 0.664062 -0.171875 0.695312 -0.207031 0.71875 -0.25 C 0.738281 -0.300781 0.75 -0.359375 0.75 -0.421875 L 0.75 -0.5625 L 0.734375 -0.5625 C 0.710938 -0.550781 0.679688 -0.535156 0.640625 -0.515625 C 0.609375 -0.503906 0.566406 -0.5 0.515625 -0.5 C 0.453125 -0.488281 0.398438 -0.472656 0.359375 -0.453125 C 0.328125 -0.441406 0.300781 -0.421875 0.28125 -0.390625 C 0.269531 -0.359375 0.265625 -0.328125 0.265625 -0.296875 C 0.265625 -0.234375 0.28125 -0.1875 0.3125 -0.15625 C 0.351562 -0.125 0.40625 -0.109375 0.46875 -0.109375 Z M 0.46875 -0.109375 "/></g></g></g></svg>