<svg xmlns="http://www.w3.org/2000/svg" xmlns:xlink="http://www.w3.org/1999/xlink" width="64" zoomAndPan="magnify" viewBox="0 0 48 48" height="64" preserveAspectRatio="xMidYMid meet" version="1.2"><defs><clipPath id="f7ed9cb320"><path d="M 0.96875 0 L 47.027344 0 L 47.027344 46.058594 L 0.96875 46.058594 Z M 0.96875 0 "/></clipPath></defs><g id="e19d627b14"><g clip-rule="nonzero" clip-path="url(#f7ed9cb320)"><path style=" stroke:none;fill-rule:nonzero;fill:#ffffff;fill-opacity:1;" d="M 0.488281 0 L 47.511719 0 L 47.511719 47.019531 L 0.488281 47.019531 Z M 0.488281 0 "/></g><path style=" stroke:none;fill-rule:nonzero;fill:#ffffff;fill-opacity:1;" d="M 28.546875 10.675781 C 30.386719 11.578125 31.855469 12.914062 33 14.605469 C 33.421875 15.246094 33.734375 15.890625 33.980469 16.617188 L 34.03125 16.769531 C 34.082031 16.917969 34.132812 17.0625 34.1875 17.210938 L 34.230469 17.34375 C 34.75 18.855469 34.785156 20.683594 34.507812 22.246094 C 34.449219 22.527344 34.378906 22.796875 34.304688 23.074219 C 34.28125 23.160156 34.257812 23.25 34.234375 23.34375 C 33.765625 25.164062 32.742188 26.8125 31.480469 28.1875 C 31.226562 28.46875 31 28.773438 30.769531 29.070312 C 30.695312 29.164062 30.625 29.257812 30.550781 29.351562 C 29.4375 30.792969 28.800781 32.378906 28.527344 34.171875 C 28.515625 34.339844 28.511719 34.460938 28.558594 34.617188 C 28.664062 34.757812 28.78125 34.863281 28.914062 34.972656 C 29.082031 35.144531 29.15625 35.3125 29.230469 35.53125 C 29.292969 35.785156 29.308594 36.019531 29.269531 36.28125 C 29.230469 36.417969 29.179688 36.550781 29.125 36.679688 C 29.082031 36.816406 29.082031 36.816406 29.121094 36.96875 C 29.171875 37.3125 29.164062 37.660156 29.164062 38.003906 C 29.164062 38.140625 29.167969 38.273438 29.167969 38.40625 C 29.167969 38.496094 29.167969 38.578125 29.167969 38.667969 L 29.171875 38.902344 C 29.144531 39.199219 29.050781 39.417969 28.882812 39.667969 C 28.667969 39.925781 28.46875 40.078125 28.15625 40.207031 C 27.894531 40.285156 27.65625 40.3125 27.386719 40.308594 L 27.210938 40.308594 L 27.078125 40.304688 L 27.054688 40.425781 C 26.949219 40.878906 26.769531 41.1875 26.488281 41.546875 L 26.402344 41.664062 C 26.09375 42.066406 25.644531 42.316406 25.183594 42.515625 C 24.609375 42.722656 24.070312 42.773438 23.464844 42.671875 C 22.789062 42.511719 22.277344 42.289062 21.773438 41.8125 C 21.507812 41.539062 21.261719 41.257812 21.167969 40.886719 C 21.109375 40.664062 21.074219 40.535156 20.917969 40.367188 C 20.667969 40.277344 20.410156 40.253906 20.148438 40.238281 C 19.863281 40.21875 19.65625 40.199219 19.410156 40.046875 C 19.117188 39.839844 18.921875 39.601562 18.734375 39.292969 C 18.609375 38.960938 18.640625 38.582031 18.667969 38.234375 C 18.710938 38.078125 18.769531 37.964844 18.84375 37.816406 C 18.890625 37.703125 18.890625 37.703125 18.90625 37.582031 C 18.859375 37.46875 18.816406 37.359375 18.773438 37.246094 C 18.6875 36.980469 18.703125 36.707031 18.707031 36.429688 L 18.703125 36.253906 C 18.703125 35.878906 18.75 35.554688 18.90625 35.210938 C 18.996094 35.0625 18.996094 35.0625 19.082031 34.953125 L 19.171875 34.835938 C 19.261719 34.738281 19.261719 34.738281 19.4375 34.617188 C 19.585938 34 19.328125 33.167969 19.160156 32.566406 C 18.667969 30.984375 17.785156 29.585938 16.667969 28.371094 C 16.433594 28.113281 16.21875 27.84375 16.007812 27.574219 L 15.863281 27.402344 C 14.660156 25.882812 13.917969 24.195312 13.519531 22.300781 L 13.472656 22.105469 C 13.128906 20.371094 13.367188 18.527344 13.894531 16.859375 C 14.351562 15.5625 15.0625 14.324219 16 13.316406 C 16.113281 13.195312 16.21875 13.066406 16.328125 12.941406 C 17.511719 11.589844 19.191406 10.695312 20.871094 10.117188 C 23.339844 9.304688 26.214844 9.566406 28.546875 10.675781 "/><path style=" stroke:none;fill-rule:nonzero;fill:#222222;fill-opacity:1;" d="M 28.546875 10.675781 C 30.386719 11.578125 31.855469 12.914062 33 14.605469 C 33.421875 15.246094 33.734375 15.890625 33.980469 16.617188 L 34.03125 16.769531 C 34.082031 16.917969 34.132812 17.0625 34.1875 17.210938 L 34.230469 17.34375 C 34.75 18.855469 34.785156 20.683594 34.507812 22.246094 C 34.449219 22.527344 34.378906 22.796875 34.304688 23.074219 C 34.28125 23.160156 34.257812 23.25 34.234375 23.34375 C 33.765625 25.164062 32.742188 26.8125 31.480469 28.1875 C 31.226562 28.46875 31 28.773438 30.769531 29.070312 C 30.695312 29.164062 30.625 29.257812 30.550781 29.351562 C 29.4375 30.792969 28.800781 32.378906 28.527344 34.171875 C 28.515625 34.339844 28.511719 34.460938 28.558594 34.617188 C 28.664062 34.757812 28.78125 34.863281 28.914062 34.972656 C 29.082031 35.144531 29.15625 35.3125 29.230469 35.53125 C 29.292969 35.785156 29.308594 36.019531 29.269531 36.28125 C 29.230469 36.417969 29.179688 36.550781 29.125 36.679688 C 29.082031 36.816406 29.082031 36.816406 29.121094 36.96875 C 29.171875 37.3125 29.164062 37.660156 29.164062 38.003906 C 29.164062 38.140625 29.167969 38.273438 29.167969 38.40625 C 29.167969 38.496094 29.167969 38.578125 29.167969 38.667969 L 29.171875 38.902344 C 29.144531 39.199219 29.050781 39.417969 28.882812 39.667969 C 28.667969 39.925781 28.46875 40.078125 28.15625 40.207031 C 27.894531 40.285156 27.65625 40.3125 27.386719 40.308594 L 27.210938 40.308594 L 27.078125 40.304688 L 27.054688 40.425781 C 26.949219 40.878906 26.769531 41.1875 26.488281 41.546875 L 26.402344 41.664062 C 26.09375 42.066406 25.644531 42.316406 25.183594 42.515625 C 24.609375 42.722656 24.070312 42.773438 23.464844 42.671875 C 22.789062 42.511719 22.277344 42.289062 21.773438 41.8125 C 21.507812 41.539062 21.261719 41.257812 21.167969 40.886719 C 21.109375 40.664062 21.074219 40.535156 20.917969 40.367188 C 20.667969 40.277344 20.410156 40.253906 20.148438 40.238281 C 19.863281 40.21875 19.65625 40.199219 19.410156 40.046875 C 19.117188 39.839844 18.921875 39.601562 18.734375 39.292969 C 18.609375 38.960938 18.640625 38.582031 18.667969 38.234375 C 18.710938 38.078125 18.769531 37.964844 18.84375 37.816406 C 18.890625 37.703125 18.890625 37.703125 18.90625 37.582031 C 18.859375 37.46875 18.816406 37.359375 18.773438 37.246094 C 18.6875 36.980469 18.703125 36.707031 18.707031 36.429688 L 18.703125 36.253906 C 18.703125 35.878906 18.75 35.554688 18.90625 35.210938 C 18.996094 35.0625 18.996094 35.0625 19.082031 34.953125 L 19.171875 34.835938 C 19.261719 34.738281 19.261719 34.738281 19.4375 34.617188 C 19.585938 34 19.328125 33.167969 19.160156 32.566406 C 18.667969 30.984375 17.785156 29.585938 16.667969 28.371094 C 16.433594 28.113281 16.21875 27.84375 16.007812 27.574219 L 15.863281 27.402344 C 14.660156 25.882812 13.917969 24.195312 13.519531 22.300781 L 13.472656 22.105469 C 13.128906 20.371094 13.367188 18.527344 13.894531 16.859375 C 14.351562 15.5625 15.0625 14.324219 16 13.316406 C 16.113281 13.195312 16.21875 13.066406 16.328125 12.941406 C 17.511719 11.589844 19.191406 10.695312 20.871094 10.117188 C 23.339844 9.304688 26.214844 9.566406 28.546875 10.675781 M 19.148438 12.265625 C 18.578125 12.648438 18.042969 13.0625 17.542969 13.539062 L 17.453125 13.621094 C 16.351562 14.660156 15.523438 15.945312 15.058594 17.386719 C 14.828125 18.164062 14.636719 18.9375 14.628906 19.75 L 14.628906 19.878906 C 14.628906 19.96875 14.628906 20.0625 14.628906 20.152344 C 14.628906 20.289062 14.625 20.421875 14.625 20.558594 C 14.621094 21.160156 14.691406 21.710938 14.820312 22.300781 C 14.84375 22.4375 14.871094 22.574219 14.894531 22.707031 C 15.242188 24.28125 16.078125 25.789062 17.152344 26.980469 C 17.285156 27.128906 17.40625 27.285156 17.523438 27.449219 L 17.664062 27.632812 L 17.78125 27.632812 L 17.820312 27.730469 C 17.921875 27.910156 18.054688 28.050781 18.191406 28.207031 C 18.582031 28.652344 18.894531 29.144531 19.203125 29.648438 L 19.269531 29.753906 C 20.074219 31.066406 20.648438 32.609375 20.730469 34.15625 L 20.742188 34.265625 L 20.800781 34.324219 C 20.886719 34.328125 20.96875 34.332031 21.054688 34.332031 L 21.59375 34.332031 C 21.800781 34.332031 22.011719 34.332031 22.21875 34.332031 L 22.652344 34.332031 C 23.035156 34.328125 23.414062 34.328125 23.796875 34.328125 C 24.1875 34.328125 24.574219 34.328125 24.964844 34.328125 C 25.730469 34.328125 26.492188 34.324219 27.257812 34.324219 L 27.273438 34.21875 C 27.292969 34.054688 27.316406 33.894531 27.335938 33.730469 L 27.359375 33.566406 C 27.605469 31.84375 28.320312 30.15625 29.378906 28.78125 C 29.734375 28.324219 30.113281 27.882812 30.492188 27.453125 C 31.160156 26.683594 31.757812 25.867188 32.230469 24.96875 L 32.339844 24.777344 C 33.0625 23.414062 33.367188 21.898438 33.367188 20.367188 L 33.367188 20.140625 C 33.371094 18.640625 32.988281 17.125 32.257812 15.8125 C 31.621094 14.71875 30.816406 13.707031 29.800781 12.945312 L 29.710938 12.875 C 28.347656 11.84375 26.84375 11.242188 25.15625 10.972656 C 23.0625 10.738281 20.945312 11.15625 19.148438 12.265625 "/><path style=" stroke:none;fill-rule:nonzero;fill:#1c98ed;fill-opacity:1;" d="M 27.417969 18.550781 C 27.496094 18.550781 27.582031 18.546875 27.664062 18.546875 C 27.785156 18.542969 27.90625 18.542969 28.027344 18.539062 L 28.246094 18.535156 C 28.4375 18.574219 28.4375 18.574219 28.597656 18.679688 C 28.738281 18.867188 28.738281 18.867188 28.765625 19.011719 C 28.777344 19.191406 28.777344 19.375 28.773438 19.554688 L 28.777344 19.765625 C 28.777344 19.992188 28.773438 20.222656 28.773438 20.453125 C 28.773438 20.613281 28.773438 20.773438 28.773438 20.929688 C 28.773438 21.269531 28.773438 21.601562 28.769531 21.9375 C 28.769531 22.320312 28.765625 22.707031 28.769531 23.09375 C 28.769531 23.46875 28.769531 23.839844 28.765625 24.210938 C 28.765625 24.367188 28.765625 24.527344 28.765625 24.683594 C 28.765625 24.90625 28.765625 25.125 28.761719 25.347656 L 28.761719 25.546875 C 28.761719 25.796875 28.757812 25.984375 28.65625 26.21875 C 28.558594 26.332031 28.558594 26.332031 28.382812 26.386719 C 28.105469 26.402344 27.835938 26.402344 27.558594 26.402344 C 27.449219 26.40625 27.449219 26.40625 27.328125 26.40625 L 27.105469 26.40625 L 26.90625 26.410156 C 26.722656 26.386719 26.722656 26.386719 26.558594 26.324219 C 26.425781 26.210938 26.425781 26.210938 26.359375 26.070312 C 26.289062 25.773438 26.292969 25.488281 26.292969 25.1875 L 26.292969 24.980469 C 26.289062 24.757812 26.289062 24.539062 26.289062 24.316406 L 26.289062 23.855469 C 26.289062 23.53125 26.289062 23.207031 26.289062 22.886719 C 26.289062 22.511719 26.285156 22.140625 26.285156 21.765625 C 26.28125 21.40625 26.28125 21.050781 26.28125 20.691406 C 26.28125 20.535156 26.28125 20.382812 26.28125 20.230469 C 26.28125 20.015625 26.28125 19.804688 26.28125 19.59375 L 26.277344 19.402344 C 26.28125 19.238281 26.285156 19.085938 26.308594 18.925781 C 26.421875 18.742188 26.421875 18.742188 26.542969 18.632812 C 26.800781 18.503906 27.132812 18.554688 27.417969 18.550781 M 28.675781 14.011719 C 28.773438 14.140625 28.773438 14.140625 28.855469 14.308594 C 28.878906 14.515625 28.878906 14.515625 28.878906 14.742188 L 28.878906 14.867188 C 28.878906 14.953125 28.878906 15.042969 28.878906 15.125 C 28.878906 15.261719 28.878906 15.390625 28.878906 15.523438 C 28.878906 15.609375 28.878906 15.691406 28.878906 15.777344 L 28.878906 16.007812 C 28.855469 16.203125 28.855469 16.203125 28.777344 16.34375 C 28.675781 16.4375 28.675781 16.4375 28.476562 16.496094 C 28.261719 16.5 28.261719 16.5 28.09375 16.445312 L 27.96875 16.320312 C 27.925781 16.144531 27.910156 15.972656 27.90625 15.789062 C 27.710938 15.941406 27.539062 16.089844 27.382812 16.28125 C 27.023438 16.699219 26.621094 17.078125 26.230469 17.464844 C 25.707031 17.980469 25.707031 17.980469 25.214844 18.527344 C 25.058594 18.703125 24.894531 18.871094 24.730469 19.035156 L 24.636719 19.140625 C 24.457031 19.320312 24.308594 19.449219 24.058594 19.519531 C 23.835938 19.539062 23.6875 19.539062 23.476562 19.445312 C 23.269531 19.332031 23.085938 19.195312 22.898438 19.042969 L 22.699219 18.890625 L 22.519531 18.75 C 22.4375 18.6875 22.363281 18.632812 22.28125 18.574219 C 22.070312 18.660156 21.941406 18.785156 21.78125 18.949219 L 21.625 19.109375 L 21.539062 19.195312 C 21.457031 19.285156 21.367188 19.375 21.28125 19.460938 C 21.035156 19.714844 20.785156 19.96875 20.539062 20.21875 C 20.390625 20.371094 20.238281 20.53125 20.089844 20.683594 C 20.03125 20.738281 19.972656 20.800781 19.917969 20.859375 C 19.476562 21.320312 19.476562 21.320312 19.242188 21.40625 C 19.054688 21.433594 18.910156 21.417969 18.730469 21.363281 C 18.609375 21.238281 18.609375 21.238281 18.566406 21.121094 C 18.53125 20.96875 18.53125 20.859375 18.550781 20.707031 C 18.625 20.589844 18.625 20.589844 18.722656 20.484375 L 18.839844 20.359375 C 19.113281 20.078125 19.394531 19.796875 19.675781 19.523438 C 19.925781 19.273438 20.164062 19.023438 20.394531 18.753906 C 20.621094 18.5 20.867188 18.261719 21.105469 18.015625 L 21.421875 17.703125 L 21.558594 17.558594 C 21.679688 17.453125 21.777344 17.386719 21.925781 17.332031 C 22.109375 17.304688 22.222656 17.296875 22.402344 17.332031 C 22.589844 17.421875 22.75 17.539062 22.914062 17.671875 L 23.046875 17.765625 C 23.226562 17.902344 23.402344 18.035156 23.570312 18.183594 L 23.703125 18.277344 C 23.820312 18.269531 23.820312 18.269531 23.9375 18.21875 C 24.039062 18.140625 24.039062 18.140625 24.125 18.046875 L 24.230469 17.9375 L 24.339844 17.824219 C 24.414062 17.746094 24.488281 17.671875 24.5625 17.59375 L 24.671875 17.484375 C 24.78125 17.375 24.894531 17.277344 25.015625 17.175781 C 25.253906 16.96875 25.464844 16.738281 25.679688 16.503906 C 25.878906 16.28125 26.085938 16.066406 26.296875 15.859375 C 26.546875 15.609375 26.789062 15.347656 27.019531 15.078125 L 26.90625 15.058594 L 26.757812 15.027344 L 26.613281 14.996094 C 26.488281 14.957031 26.488281 14.957031 26.367188 14.84375 C 26.332031 14.671875 26.308594 14.535156 26.308594 14.367188 C 26.371094 14.195312 26.371094 14.195312 26.488281 14.070312 C 26.832031 13.910156 27.207031 13.921875 27.582031 13.910156 L 27.78125 13.898438 C 28.425781 13.875 28.425781 13.875 28.675781 14.011719 M 23.253906 20.667969 L 23.609375 20.667969 C 23.699219 20.667969 23.785156 20.667969 23.871094 20.667969 C 24.003906 20.671875 24.132812 20.671875 24.269531 20.667969 C 24.351562 20.671875 24.4375 20.671875 24.519531 20.671875 L 24.75 20.671875 C 24.945312 20.707031 24.945312 20.707031 25.074219 20.792969 C 25.183594 20.941406 25.183594 20.941406 25.214844 21.160156 C 25.214844 21.253906 25.214844 21.339844 25.214844 21.433594 L 25.214844 21.582031 C 25.214844 21.742188 25.214844 21.90625 25.214844 22.066406 C 25.214844 22.183594 25.214844 22.292969 25.214844 22.40625 C 25.214844 22.644531 25.214844 22.882812 25.210938 23.121094 C 25.210938 23.421875 25.210938 23.722656 25.210938 24.03125 C 25.210938 24.265625 25.210938 24.496094 25.210938 24.730469 C 25.210938 24.84375 25.210938 24.953125 25.210938 25.066406 C 25.210938 25.222656 25.210938 25.382812 25.210938 25.535156 L 25.210938 25.675781 C 25.207031 25.878906 25.1875 26.023438 25.097656 26.210938 C 25.007812 26.332031 25.007812 26.332031 24.898438 26.375 C 24.589844 26.40625 24.28125 26.402344 23.972656 26.402344 C 23.863281 26.40625 23.863281 26.40625 23.75 26.40625 L 23.539062 26.40625 L 23.34375 26.410156 C 23.144531 26.386719 23.035156 26.335938 22.875 26.210938 C 22.757812 26.03125 22.757812 26.03125 22.742188 25.820312 C 22.738281 25.734375 22.738281 25.644531 22.738281 25.558594 L 22.738281 25.40625 C 22.734375 25.246094 22.734375 25.085938 22.734375 24.925781 L 22.734375 24.589844 C 22.730469 24.355469 22.730469 24.121094 22.730469 23.886719 C 22.730469 23.585938 22.726562 23.285156 22.726562 22.984375 C 22.722656 22.753906 22.722656 22.523438 22.722656 22.289062 C 22.722656 22.179688 22.722656 22.066406 22.722656 21.957031 C 22.71875 21.804688 22.71875 21.648438 22.71875 21.492188 L 22.71875 21.355469 C 22.71875 21.226562 22.71875 21.226562 22.757812 21 C 22.917969 20.789062 22.992188 20.714844 23.253906 20.667969 M 19.640625 22.441406 C 19.722656 22.441406 19.800781 22.441406 19.882812 22.441406 L 20.007812 22.441406 C 20.101562 22.441406 20.1875 22.441406 20.28125 22.445312 C 20.414062 22.445312 20.550781 22.445312 20.691406 22.445312 C 20.777344 22.445312 20.863281 22.445312 20.949219 22.445312 L 21.078125 22.445312 C 21.191406 22.449219 21.191406 22.449219 21.394531 22.480469 C 21.523438 22.582031 21.523438 22.582031 21.632812 22.71875 C 21.65625 22.871094 21.65625 22.871094 21.65625 23.050781 L 21.660156 23.253906 L 21.65625 23.472656 L 21.65625 23.695312 C 21.65625 23.851562 21.65625 24.007812 21.65625 24.164062 C 21.65625 24.363281 21.65625 24.566406 21.65625 24.765625 C 21.65625 24.957031 21.65625 25.148438 21.65625 25.339844 L 21.65625 25.9375 C 21.632812 26.09375 21.632812 26.09375 21.546875 26.230469 C 21.453125 26.332031 21.453125 26.332031 21.34375 26.371094 C 21.039062 26.410156 20.726562 26.398438 20.417969 26.398438 L 20.199219 26.402344 L 19.792969 26.402344 C 19.605469 26.386719 19.484375 26.363281 19.320312 26.269531 C 19.21875 26.058594 19.1875 25.886719 19.1875 25.652344 L 19.183594 25.460938 L 19.183594 25.042969 C 19.183594 24.894531 19.179688 24.75 19.179688 24.601562 C 19.179688 24.375 19.179688 24.148438 19.175781 23.921875 C 19.175781 23.78125 19.175781 23.636719 19.175781 23.496094 L 19.171875 23.289062 C 19.175781 23.023438 19.179688 22.828125 19.292969 22.585938 C 19.4375 22.480469 19.4375 22.480469 19.640625 22.441406 "/><path style=" stroke:none;fill-rule:nonzero;fill:#f9e830;fill-opacity:1;" d="M 21.082031 12.703125 C 21.277344 12.769531 21.277344 12.769531 21.453125 12.921875 C 21.570312 13.125 21.570312 13.125 21.574219 13.339844 C 21.511719 13.539062 21.511719 13.539062 21.410156 13.660156 C 21.261719 13.785156 21.136719 13.839844 20.957031 13.90625 C 20.222656 14.195312 19.515625 14.691406 18.964844 15.257812 L 18.84375 15.375 L 18.726562 15.375 L 18.6875 15.46875 C 18.605469 15.621094 18.5 15.75 18.390625 15.882812 C 17.5625 16.894531 17.152344 17.976562 16.863281 19.230469 C 16.78125 19.566406 16.78125 19.566406 16.683594 19.703125 C 16.484375 19.777344 16.332031 19.765625 16.125 19.730469 C 16.007812 19.699219 16.007812 19.699219 15.886719 19.59375 C 15.804688 19.410156 15.761719 19.242188 15.777344 19.039062 C 16.070312 17.660156 16.582031 16.355469 17.484375 15.257812 L 17.570312 15.152344 C 17.90625 14.738281 18.246094 14.34375 18.667969 14.011719 L 18.824219 13.890625 C 19.167969 13.621094 19.523438 13.386719 19.898438 13.160156 L 20.023438 13.085938 C 20.355469 12.890625 20.6875 12.710938 21.082031 12.703125 "/><path style=" stroke:none;fill-rule:nonzero;fill:#ffffff;fill-opacity:1;" d="M 20.617188 35.558594 L 21.226562 35.558594 C 21.425781 35.558594 21.621094 35.558594 21.816406 35.558594 C 21.980469 35.554688 22.140625 35.554688 22.304688 35.554688 C 22.691406 35.554688 23.074219 35.554688 23.460938 35.554688 C 23.859375 35.554688 24.257812 35.554688 24.65625 35.554688 C 24.996094 35.554688 25.335938 35.554688 25.675781 35.554688 C 25.882812 35.554688 26.085938 35.554688 26.289062 35.550781 C 26.519531 35.550781 26.742188 35.550781 26.972656 35.550781 C 27.074219 35.550781 27.074219 35.550781 27.175781 35.550781 L 27.527344 35.550781 C 27.683594 35.566406 27.777344 35.601562 27.90625 35.6875 L 28.027344 35.863281 C 28.003906 36.023438 28.003906 36.023438 27.96875 36.160156 L 27.855469 36.171875 C 26.953125 36.28125 26.054688 36.402344 25.15625 36.527344 L 24.964844 36.550781 C 24.175781 36.660156 23.386719 36.773438 22.597656 36.882812 L 22.367188 36.917969 C 21.996094 36.972656 21.625 37.027344 21.25 37.078125 L 20.660156 37.164062 L 20.488281 37.191406 L 20.335938 37.210938 C 20.207031 37.222656 20.207031 37.222656 20.03125 37.222656 C 19.976562 36.796875 19.925781 36.355469 19.96875 35.921875 C 20.082031 35.734375 20.082031 35.734375 20.207031 35.628906 C 20.355469 35.550781 20.453125 35.558594 20.617188 35.558594 M 27.90625 37.460938 C 27.921875 37.652344 27.9375 37.84375 27.949219 38.03125 L 27.960938 38.195312 C 27.976562 38.445312 27.976562 38.621094 27.890625 38.859375 L 27.789062 39.003906 C 27.609375 39.0625 27.492188 39.070312 27.304688 39.070312 L 27.113281 39.070312 L 26.90625 39.066406 L 26.683594 39.066406 C 26.484375 39.066406 26.28125 39.066406 26.082031 39.066406 L 25.707031 39.0625 C 25.3125 39.0625 24.921875 39.058594 24.527344 39.054688 C 24.078125 39.054688 23.625 39.050781 23.171875 39.050781 C 22.820312 39.046875 22.472656 39.046875 22.125 39.042969 C 21.914062 39.042969 21.703125 39.042969 21.496094 39.042969 C 21.265625 39.042969 21.03125 39.039062 20.796875 39.035156 L 20.585938 39.039062 L 20.394531 39.035156 L 20.230469 39.035156 L 20.089844 39.003906 C 19.980469 38.894531 19.980469 38.894531 19.914062 38.765625 C 19.933594 38.601562 19.933594 38.601562 19.96875 38.46875 C 20.878906 38.332031 21.78125 38.203125 22.6875 38.082031 C 23.339844 37.992188 23.984375 37.90625 24.632812 37.8125 L 24.859375 37.78125 C 25.238281 37.730469 25.617188 37.675781 25.996094 37.621094 L 26.417969 37.5625 L 26.613281 37.535156 C 26.898438 37.492188 27.179688 37.453125 27.46875 37.421875 L 27.609375 37.40625 C 27.730469 37.40625 27.730469 37.40625 27.90625 37.460938 "/><path style=" stroke:none;fill-rule:nonzero;fill:#ffffff;fill-opacity:1;" d="M 22.28125 40.246094 C 22.605469 40.242188 22.933594 40.242188 23.257812 40.242188 C 23.367188 40.242188 23.476562 40.242188 23.585938 40.242188 C 24.339844 40.238281 25.085938 40.257812 25.835938 40.304688 C 25.699219 40.667969 25.480469 40.890625 25.183594 41.136719 C 24.832031 41.34375 24.484375 41.4375 24.082031 41.445312 C 23.730469 41.441406 23.429688 41.398438 23.113281 41.253906 C 22.757812 41.035156 22.496094 40.78125 22.28125 40.421875 Z M 22.28125 40.246094 "/></g></svg>